<?xml version="1.0" standalone="no"?>
<!DOCTYPE svg PUBLIC "-//W3C//DTD SVG 20010904//EN"
 "http://www.w3.org/TR/2001/REC-SVG-20010904/DTD/svg10.dtd">
<svg version="1.0" xmlns="http://www.w3.org/2000/svg"
 width="700.000000pt" height="700.000000pt" viewBox="0 0 605.000000 689.000000"
 preserveAspectRatio="xMidYMid meet">

<g transform="translate(0.000000,689.000000) scale(0.100000,-0.100000)"
fill="#ffffff" stroke="none">
<path d="M540 6577 c-23 -61 -62 -161 -86 -222 -23 -60 -88 -227 -143 -370
-55 -143 -113 -291 -128 -330 l-29 -70 100 -80 c523 -416 869 -1022 984 -1725
42 -251 47 -320 47 -635 -1 -299 -5 -374 -40 -635 -88 -651 -315 -1376 -616
-1959 -43 -85 -77 -156 -75 -158 7 -8 256 359 443 652 475 744 783 1386 939
1953 36 131 46 175 68 287 51 257 66 407 66 652 0 579 -153 1088 -485 1620
-187 300 -401 560 -711 863 -93 91 -196 189 -230 217 l-61 52 -43 -112z"/>
<path d="M2322 6619 c-140 -44 -252 -139 -313 -264 -32 -67 -34 -75 -34 -180
0 -103 2 -114 32 -175 85 -173 243 -275 445 -287 261 -16 473 123 544 356 68
225 -94 477 -355 555 -79 23 -238 21 -319 -5z"/>
<path d="M4605 3879 c-620 -51 -1111 -218 -1591 -541 -55 -38 -193 -139 -227
-167 -12 -10 -56 -47 -97 -81 -100 -84 -417 -403 -510 -514 -398 -474 -684
-894 -1262 -1859 -132 -220 -238 -403 -236 -407 2 -5 66 71 143 167 178 224
409 506 494 603 552 630 1022 1038 1541 1337 289 167 620 299 930 371 132 31
136 32 345 64 49 8 190 12 365 12 281 1 341 -4 550 -41 174 -30 162 -32 202
23 19 27 52 73 72 102 20 29 94 135 163 235 70 100 146 209 169 242 164 231
244 356 232 360 -15 4 -225 39 -333 54 -329 46 -687 62 -950 40z"/>
<path d="M4145 2719 c-999 -122 -1979 -737 -2816 -1769 -174 -214 -527 -716
-513 -729 3 -4 15 6 27 20 12 15 51 62 87 105 169 205 429 445 700 646 541
401 1155 692 1690 801 229 46 285 52 520 51 202 -1 238 -4 351 -27 69 -15 164
-40 210 -56 46 -16 86 -28 90 -25 4 2 61 81 126 175 480 694 503 727 503 732
0 2 -15 8 -32 12 -18 4 -51 11 -73 16 -189 42 -357 59 -590 58 -115 -1 -241
-5 -280 -10z"/>
<path d="M3330 1414 c-181 -32 -326 -130 -394 -264 -47 -94 -63 -189 -46 -272
35 -168 153 -300 327 -364 70 -26 90 -29 193 -28 100 1 124 4 185 28 93 36
155 77 214 142 93 102 135 237 112 360 -31 172 -158 313 -336 372 -59 20 -205
35 -255 26z"/>
</g>
</svg>
